<svg width="9" height="13" viewBox="0 0 9 13" fill="none" xmlns="http://www.w3.org/2000/svg">
<path id="Vector" d="M8.42592 5.09563C8.42659 4.35211 8.24778 3.62049 7.90612 2.96871C7.56446 2.31693 7.07102 1.76615 6.47165 1.36754C5.87228 0.968917 5.18642 0.735393 4.47779 0.688657C3.76915 0.64192 3.06073 0.783488 2.41833 1.10021C1.77594 1.41693 1.2204 1.89853 0.803346 2.50026C0.386287 3.102 0.121232 3.80435 0.0328019 4.54208C-0.0556279 5.2798 0.0354371 6.02896 0.297537 6.71997C0.559637 7.41097 0.984269 8.0214 1.53199 8.49454V12.3146C1.5316 12.383 1.54815 12.4504 1.58003 12.5101C1.61192 12.5699 1.65804 12.6199 1.71391 12.6555C1.76933 12.6919 1.83275 12.7129 1.89812 12.7164C1.9635 12.72 2.02864 12.7059 2.08733 12.6755L4.21296 11.5576L6.33859 12.6755C6.39295 12.7007 6.45153 12.7143 6.51094 12.7156C6.61252 12.7156 6.70994 12.6734 6.78176 12.5981C6.85359 12.5229 6.89394 12.4209 6.89394 12.3146V8.49454C7.37307 8.08155 7.75893 7.56259 8.0238 6.97492C8.28868 6.38725 8.42601 5.74546 8.42592 5.09563ZM0.765993 5.09563C0.765993 4.38174 0.968154 3.68389 1.34691 3.09031C1.72567 2.49674 2.26401 2.0341 2.89386 1.76091C3.52372 1.48772 4.21679 1.41624 4.88543 1.55551C5.55408 1.69479 6.16827 2.03855 6.65034 2.54335C7.1324 3.04814 7.4607 3.69129 7.5937 4.39145C7.7267 5.09162 7.65844 5.81736 7.39755 6.47691C7.13665 7.13645 6.69485 7.70017 6.128 8.09679C5.56114 8.4934 4.89471 8.70509 4.21296 8.70509C3.29916 8.70377 2.42314 8.32306 1.77699 7.64644C1.13083 6.96982 0.767259 6.05251 0.765993 5.09563ZM6.12794 11.6679L4.38531 10.7505C4.33154 10.7234 4.27263 10.7093 4.21296 10.7093C4.15329 10.7093 4.09438 10.7234 4.04061 10.7505L2.29798 11.6679V9.02593C2.89108 9.34241 3.54729 9.5074 4.21296 9.5074C4.87863 9.5074 5.53484 9.34241 6.12794 9.02593V11.6679ZM4.21296 7.90299C4.74321 7.90299 5.26155 7.73834 5.70243 7.42986C6.14332 7.12139 6.48694 6.68294 6.68986 6.16996C6.89278 5.65698 6.94587 5.09251 6.84242 4.54794C6.73898 4.00336 6.48364 3.50314 6.1087 3.11052C5.73376 2.7179 5.25605 2.45053 4.73599 2.3422C4.21594 2.23388 3.67688 2.28948 3.187 2.50196C2.69711 2.71444 2.2784 3.07427 1.98381 3.53594C1.68922 3.99761 1.53199 4.54038 1.53199 5.09563C1.53199 5.84018 1.81444 6.55425 2.31723 7.08073C2.82001 7.60721 3.50192 7.90299 4.21296 7.90299ZM4.21296 3.09037C4.59171 3.09037 4.96195 3.20797 5.27687 3.42831C5.59179 3.64865 5.83723 3.96183 5.98218 4.32825C6.12712 4.69466 6.16504 5.09785 6.09115 5.48683C6.01726 5.87581 5.83487 6.23312 5.56706 6.51356C5.29924 6.794 4.95803 6.98498 4.58656 7.06235C4.21509 7.13973 3.83005 7.10002 3.48013 6.94824C3.13021 6.79647 2.83113 6.53945 2.62071 6.20969C2.41029 5.87992 2.29798 5.49223 2.29798 5.09563C2.29924 4.5642 2.50141 4.05493 2.86026 3.67915C3.21912 3.30338 3.70547 3.09169 4.21296 3.09037Z" fill="#FFC700"/>
</svg>
